<?xml version="1.0" encoding="UTF-8" standalone="no"?>
<!-- Created with Inkscape (http://www.inkscape.org/) -->

<svg
   xmlns:dc="http://purl.org/dc/elements/1.1/"
   xmlns:cc="http://creativecommons.org/ns#"
   xmlns:rdf="http://www.w3.org/1999/02/22-rdf-syntax-ns#"
   xmlns:svg="http://www.w3.org/2000/svg"
   xmlns="http://www.w3.org/2000/svg"
   xmlns:sodipodi="http://sodipodi.sourceforge.net/DTD/sodipodi-0.dtd"
   xmlns:inkscape="http://www.inkscape.org/namespaces/inkscape"
   width="318.94836mm"
   height="253.27344mm"
   viewBox="0 0 1130.132 897.42556"
   id="svg2"
   version="1.1"
   inkscape:version="0.91 r13725"
   sodipodi:docname="fox.svg"
   inkscape:export-filename="/home/algot/Documents/runeman.org/clipart/fox.png"
   inkscape:export-xdpi="23.89101"
   inkscape:export-ydpi="23.89101">
  <title
     id="title3385">Fox</title>
  <defs
     id="defs4" />
  <sodipodi:namedview
     id="base"
     pagecolor="#ffffff"
     bordercolor="#666666"
     borderopacity="1.0"
     inkscape:pageopacity="0.0"
     inkscape:pageshadow="2"
     inkscape:zoom="0.5"
     inkscape:cx="460.69381"
     inkscape:cy="437.42962"
     inkscape:document-units="px"
     inkscape:current-layer="layer1"
     showgrid="false"
     inkscape:window-width="1366"
     inkscape:window-height="712"
     inkscape:window-x="0"
     inkscape:window-y="0"
     inkscape:window-maximized="1"
     fit-margin-top="0"
     fit-margin-left="0"
     fit-margin-right="0"
     fit-margin-bottom="0" />
  <metadata
     id="metadata7">
    <rdf:RDF>
      <cc:Work
         rdf:about="">
        <dc:format>image/svg+xml</dc:format>
        <dc:type
           rdf:resource="http://purl.org/dc/dcmitype/StillImage" />
        <dc:title>Fox</dc:title>
        <dc:date>2016-09-03</dc:date>
        <dc:creator>
          <cc:Agent>
            <dc:title>Algot Runeman</dc:title>
          </cc:Agent>
        </dc:creator>
        <dc:rights>
          <cc:Agent>
            <dc:title>Algot Runeman</dc:title>
          </cc:Agent>
        </dc:rights>
        <dc:publisher>
          <cc:Agent>
            <dc:title>runeman.org</dc:title>
          </cc:Agent>
        </dc:publisher>
        <dc:identifier>fox.svg</dc:identifier>
        <cc:license
           rdf:resource="http://creativecommons.org/publicdomain/zero/1.0/" />
      </cc:Work>
      <cc:License
         rdf:about="http://creativecommons.org/publicdomain/zero/1.0/">
        <cc:permits
           rdf:resource="http://creativecommons.org/ns#Reproduction" />
        <cc:permits
           rdf:resource="http://creativecommons.org/ns#Distribution" />
        <cc:permits
           rdf:resource="http://creativecommons.org/ns#DerivativeWorks" />
      </cc:License>
    </rdf:RDF>
  </metadata>
  <g
     inkscape:label="Layer 1"
     inkscape:groupmode="layer"
     id="layer1"
     transform="translate(-120.93399,273.66486)">
    <path
       style="fill:#000000;fill-rule:evenodd;stroke:#000000;stroke-width:1px;stroke-linecap:butt;stroke-linejoin:miter;stroke-opacity:1"
       d="m 236.98452,-175.91819 -7.33615,-12.83825 -5.5021,0 -11.00422,-23.84247 -25.6765,-29.34457 -22.00843,-20.17439 -20.1744,-9.17018 -9.17018,-1.83404 -9.17018,9.17018 -5.5021,16.50632 3.66807,47.68493 3.66807,23.84247 1.83403,9.17018 -1.83403,7.33614 20.17439,45.8509 -7.33614,11.00421 3.66807,20.174402 7.33614,18.34036 1.83404,11.00421 0,18.34036 -1.83404,16.50632 7.33615,22.008428 20.17439,12.83825 3.66807,23.84247 3.66808,5.5021 7.33614,0 0,12.83826 12.83825,22.00843 18.34036,14.67228 14.67229,-1.83403 9.17018,23.84246 22.00843,20.1744 33.01264,33.01264 40.34879,31.17861 27.51054,16.50632 29.34457,11.00422 c 0,0 13.42176,4.4241 18.34036,9.17018 5.51235,5.31899 6.14184,14.25536 11.00421,20.17439 3.03084,3.68949 9.26039,4.72525 11.00422,9.17018 6.97889,17.78882 -5.65764,37.82015 -7.33615,56.85511 -1.12899,12.80312 -0.88859,25.69677 -1.83403,38.51475 -0.90389,12.2546 -3.05597,24.40809 -3.66807,36.68072 -0.30453,6.10586 1.19895,12.34563 0,18.34036 -1.55863,7.79315 -7.61155,14.21528 -9.17018,22.00843 -1.91831,9.59157 0.24431,19.5661 0,29.34457 -0.30577,12.23836 1.00565,24.77244 -1.83404,36.68072 -1.39664,5.85683 -5.03198,10.94359 -7.33614,16.50632 -3.25857,7.86689 -2.51051,18.53634 -9.17018,23.84247 -6.76187,5.38756 -17.94353,-0.19842 -25.6765,3.66807 -1.54659,0.7733 -2.18357,2.78139 -3.66807,3.66807 -5.47959,3.27293 -13.20994,1.70517 -18.34036,5.50211 -3.54357,2.62254 -7.77055,6.61719 -7.33615,11.00421 0.68155,6.88291 14.67229,14.67225 14.67229,14.67225 l 7.33614,0 c 23.84247,5.72664 47.68493,4.92751 71.5274,0 0,0 11.02357,-30.56029 16.50632,-45.85086 3.06756,-8.55496 1.74126,-20.4412 9.17018,-25.6765 2.99834,-2.11299 8.48346,2.66469 11.00422,0 7.57393,-8.00638 -2.80041,-22.03391 -1.83404,-33.01264 0.93617,-10.63556 4.0705,-21.01361 7.33615,-31.17861 3.43778,-10.70079 9.467,-20.45668 12.83825,-31.17861 3.38121,-10.75361 6.10611,-21.80731 7.33614,-33.01265 0.26683,-2.43078 -1.37095,-5.3112 0,-7.33614 1.8457,-2.72616 6.32004,-5.31587 9.17018,-3.66807 14.96967,8.65468 1.29958,35.14947 7.33614,51.353 3.55209,9.53465 12.17527,16.4695 16.50632,25.6765 6.00782,12.7715 10.67292,26.40188 12.83826,40.34879 1.78204,11.47805 -1.14457,23.28765 0,34.84668 1.22867,12.40836 15.63529,27.37474 7.33614,36.68072 -4.89972,5.49413 -14.90151,-3.75352 -22.00843,-1.83404 -7.20428,1.94578 -13.63366,7.04733 -18.34036,12.83825 -2.93655,3.61301 -5.50211,12.83828 -5.50211,12.83828 l 0,11.0042 7.33615,3.6681 c 24.45381,8.86274 48.90762,5.17455 73.36143,-1.8341 0,0 9.11149,-12.75176 11.00421,-20.17437 1.3595,-5.3315 -3.89058,-12.61574 0,-16.50632 1.29686,-1.29686 4.23805,1.32885 5.50211,0 8.43762,-8.87004 0.86594,-24.73999 -1.83403,-36.68072 -1.75279,-7.75179 -6.93773,-14.38093 -9.17018,-22.00843 -5.92893,-20.25709 -9.16317,-41.33075 -11.00422,-62.35722 -0.6399,-7.30818 1.0653,-14.75005 0,-22.00843 -0.92684,-6.31498 -4.05756,-12.12334 -5.50211,-18.34036 -7.57464,-32.59958 -9.69125,-66.27114 -16.50632,-99.03793 -2.56638,-12.33914 -7.11176,-24.24674 -9.17018,-36.68072 -1.20233,-7.26272 -2.42907,-14.67095 -1.83403,-22.00843 0.20374,-2.51239 -0.19503,-5.84063 1.83403,-7.33614 17.7436,-13.07787 44.02339,5.00313 66.02529,3.66807 17.35653,-1.05319 51.35301,-9.17018 51.35301,-9.17018 l 29.34457,-3.66807 c 0,0 -2.54342,27.14187 0,40.34879 1.86774,9.69838 7.53798,18.26218 11.00421,27.51054 4.54633,12.13019 7.95338,24.68285 12.83825,36.68071 3.81598,9.37251 8.8625,18.20468 12.83826,27.51054 4.63873,10.85764 10.66121,21.40805 12.83825,33.01265 2.93079,15.62244 1.50766,31.86162 0,47.68493 -1.53529,16.11325 -4.08843,32.31712 -9.17018,47.68493 -5.75165,17.39367 -15.77203,33.07241 -23.84247,49.51897 -5.41984,11.04496 -5.50211,27.51053 -16.50632,33.01264 -6.11345,3.05673 -13.42346,-4.73707 -20.1744,-3.66807 -8.91532,1.41172 -15.94954,-1.54099 -23.84246,2.83825 -4.3099,2.39126 -12.83825,17.33617 -12.83825,17.33617 l -5.50211,3.668 14.67229,14.6723 0,12.8383 c 25.6765,5.89781 51.353,8.15663 77.0295,-1.8341 l 23.84247,-29.3445 c 0,0 27.85329,-58.27037 40.34879,-88.03375 8.6142,-20.5184 16.66662,-41.29263 23.84246,-62.35721 2.05816,-6.04169 5.1728,-11.96623 5.50211,-18.34036 1.34859,-26.10333 -12.21604,-51.00703 -14.67229,-77.02951 -0.80429,-8.52096 -2.16882,-17.39702 0,-25.6765 2.84387,-10.85651 13.27726,-18.59634 16.50632,-29.34457 2.46885,-8.2178 -0.43382,-17.40098 1.83404,-25.6765 5.0582,-18.4576 25.6765,-51.35301 25.6765,-51.35301 l 11.00422,-18.34035 7.33614,5.5021 c 0,0 17.79133,48.49125 29.34457,71.5274 6.39233,12.74576 15.29617,24.1005 22.00843,36.68072 5.407,10.13389 10.09197,20.64524 14.67229,31.17861 3.93848,9.05733 6.53519,18.70288 11.00422,27.51053 5.21937,10.28643 12.698,19.28394 18.34035,29.34458 11.36761,20.26909 19.37099,42.34125 31.17861,62.35721 6.03112,10.22383 16.32212,18.11689 20.17442,29.34458 3.3787,9.84733 1.5282,20.77227 1.834,31.17861 0.3951,13.44379 5.9091,28.2668 0,40.34878 -3.0625,6.26162 -11.4371,8.05389 -16.5063,12.83826 -4.7261,4.4606 -12.83826,14.67228 -12.83826,14.67228 l 0,18.3404 16.50636,7.3361 c 15.6954,1.42223 26.203,8.03237 56.8551,-5.5021 l 7.3361,-64.19126 c 0,0 11.6349,15.20918 18.3404,22.00843 7.9154,8.02613 16.8535,14.99214 25.6765,22.00843 11.2928,8.9804 22.1435,18.8352 34.8467,25.6765 10.8988,5.8695 22.4686,12.9704 34.8467,12.8383 18.3901,-0.1963 35.968,-10.0976 51.3529,-20.1744 5.0627,-3.316 10.9667,-7.0829 12.8383,-12.8383 3.6365,-11.18304 -1.9134,-23.64819 -5.5021,-34.84667 -2.0859,-6.50899 -6.7988,-11.92987 -9.1702,-18.34036 -2.6236,-7.09221 -3.2101,-14.80221 -5.5021,-22.00843 -3.5786,-11.25165 -7.1032,-22.69199 -12.8382,-33.01264 -4.4543,-8.01574 -12.1978,-13.91348 -16.5064,-22.00843 -6.9947,-13.14166 -6.4657,-29.76179 -14.6722,-42.18283 -5.01,-7.58275 -15.1332,-10.77844 -20.1744,-18.34036 -5.0413,-7.56192 -5.5003,-17.36214 -9.1702,-25.6765 -8.9454,-20.26587 -21.9675,-38.5427 -31.1786,-58.68914 -8.4502,-18.48192 -13.08,-38.5995 -22.0085,-56.85512 -1.5661,-3.20224 -4.362,-5.79267 -5.5021,-9.17017 -14.164,-41.96169 -14.6723,-132.05058 -14.6723,-132.05058 L 1069.6368,64.3405 1040.2922,3.81732 1012.7817,-36.531468 c 0,0 -23.27264,-35.20266 -38.51478,-49.51896 -11.86523,-11.14451 -25.47283,-20.900732 -40.34879,-27.510542 -18.9704,-8.42909 -39.83171,-13.00235 -60.52318,-14.67229 -23.8354,-1.92367 -47.78575,2.64539 -71.5274,5.50211 -41.21124,4.95876 -81.63026,15.55043 -122.8804,20.17439 -20.08561,2.25151 -40.31206,3.776962 -60.52318,3.668072 -17.16103,-0.0925 -34.2483,-5.060342 -51.35301,-3.668072 -13.15363,1.07067 -25.40765,7.631322 -38.51475,9.170182 -7.2861,0.85544 -14.7372,0.97375 -22.00843,0 -6.90873,-0.9252 -13.60822,-3.16287 -20.17439,-5.50211 -11.34374,-4.041292 -33.01265,-14.672282 -33.01265,-14.672282 l -38.51475,-20.1744 -11.00421,0 -1.83404,-5.5021 7.33614,-33.01265 3.66807,-47.68493 0,-22.00843 -7.33614,-14.67229 -14.67229,0 -33.01264,16.50633 -25.6765,22.00843 -16.50632,13.17018 -11.00422,25.34457 -18.34036,-3.66807 -25.6765,5.5021 -12.83825,1.83404 z"
       id="path3349"
       inkscape:connector-curvature="0"
       sodipodi:nodetypes="ccccccccccccccccccccccccccccccccccccsssssssssssssssscccssssssssssssssssccccsssssssssssssccsssssssssssccccccssssssscccsssssssssscccccsssssssssssssssssccccssssssssssccccccccccccccccc" />
  </g>
</svg>
